<svg width="40" height="40" viewBox="0 0 40 40" fill="none" xmlns="http://www.w3.org/2000/svg">
<circle cx="20" cy="20" r="20" fill="#4C4745"/>
<path d="M20.18 28.24C19.0333 28.24 18.0133 28 17.12 27.52C16.24 27.04 15.5467 26.38 15.04 25.54C14.5333 24.7 14.28 23.7467 14.28 22.68V13.1H17V22.54C17 23.1533 17.1333 23.7067 17.4 24.2C17.68 24.6933 18.06 25.08 18.54 25.36C19.02 25.6267 19.5667 25.76 20.18 25.76C20.8067 25.76 21.3533 25.6267 21.82 25.36C22.3 25.08 22.6733 24.6933 22.94 24.2C23.22 23.7067 23.36 23.1533 23.36 22.54V13.1H26.08V22.68C26.08 23.7467 25.8267 24.7 25.32 25.54C24.8133 26.38 24.1133 27.04 23.22 27.52C22.34 28 21.3267 28.24 20.18 28.24Z" fill="#FCFDFA"/>
</svg>
